<svg width="632" height="336" viewBox="0 0 632 336" fill="none" xmlns="http://www.w3.org/2000/svg">
<path d="M131.496 206.407C113.496 199.907 91.0958 206.507 73.4958 214.907C51.4958 225.407 34.9958 255.407 21.9958 277.907C17.3429 285.96 1.4958 318.407 22.9958 316.907C44.4958 315.407 74.4958 309.407 82.9958 284.407C89.7958 264.407 106.162 222.407 114.496 206.407C105.496 233.74 98.9958 259.907 102.496 294.907C104.446 314.407 100.996 326.407 138.996 308.907C151.46 303.167 167.462 288.847 184.171 271.095M184.171 271.095C213.042 240.422 244.021 199.505 262.496 174.907C283.662 139.074 310.996 88.9071 322.496 48.907C327.471 31.6011 331.996 18.4071 315.996 13.407C299.996 8.40695 272.997 11.9286 228.496 106.907C185.355 198.981 202.601 158.667 185.496 237.907C183.027 249.343 182.812 260.661 184.171 271.095ZM184.171 271.095C188.055 300.914 204.791 323.5 218.496 320.907C236.996 317.407 273.496 324.407 302.996 279.907C307.164 273.619 312.092 266.086 317.43 257.738M317.43 257.738C349.867 207.011 397.457 126.178 382 111.5C366.773 97.0396 315.894 234.935 316.996 251.907C317.128 253.944 317.273 255.885 317.43 257.738ZM317.43 257.738C320.242 290.91 326.972 295.648 335.496 308.907C346.355 325.799 404.496 343.407 458.496 268.907C480.237 238.913 493.225 217.671 501.016 202.149M501.016 202.149C512.577 179.116 512.697 168.673 512.996 160.907C513.496 147.907 482.496 164.907 492.496 184.907C497.851 195.618 498.618 198.728 501.016 202.149ZM501.016 202.149C503.096 205.115 506.403 208.314 514.996 216.907C529.367 231.278 549.457 223.555 553.204 217.449M553.204 217.449C553.316 217.267 553.414 217.086 553.496 216.907C553.401 217.079 553.304 217.259 553.204 217.449ZM553.204 217.449C548.77 225.918 540.105 251.951 540.496 253.907C540.996 256.407 508.104 307.276 530.996 314.907C542.996 318.907 564.496 318.907 588.496 290.407C607.696 267.607 619.496 254.24 622.996 250.407M278 199L432 209" stroke="black" stroke-width="24"/>
</svg>
