<svg width="720" height="240" viewBox="0 0 720 240" fill="none" xmlns="http://www.w3.org/2000/svg">
<g clip-path="url(#clip0_14_25)">
<path d="M104.1 57.45C105.5 57.45 107.3 57.55 109.5 57.75C111.7 57.85 114 58.2 116.4 58.8C118.9 59.4 121.1 60.5 123 62.1C125.9 64.2 127.7 67.35 128.4 71.55C128.7 73.15 128.9 76.05 129 80.25C129.2 84.35 129.3 89.2 129.3 94.8C129.3 100.4 129.25 106.35 129.15 112.65C129.15 118.95 129.1 125.2 129 131.4C128.9 137.5 128.8 143.15 128.7 148.35C128.6 153.45 128.5 157.6 128.4 160.8C128.3 164 128.2 165.85 128.1 166.35C127.7 169.75 127.05 173.35 126.15 177.15C125.35 180.95 123.65 184.35 121.05 187.35C119.35 189.25 117.1 190.9 114.3 192.3C111.6 193.7 108.15 194.65 103.95 195.15C103.95 194.85 103.95 192.65 103.95 188.55C103.95 184.55 103.95 179.25 103.95 172.65C104.05 166.05 104.1 158.7 104.1 150.6C104.1 142.4 104.1 134 104.1 125.4C104.1 116.7 104.1 108.35 104.1 100.35C104.1 92.25 104.1 85 104.1 78.6C104.1 72.1 104.1 66.95 104.1 63.15C104.1 59.35 104.1 57.45 104.1 57.45ZM210 72.6C210.3 74.2 210.5 77.45 210.6 82.35C210.7 87.25 210.75 93.15 210.75 100.05C210.75 106.85 210.7 114.2 210.6 122.1C210.5 129.9 210.35 137.65 210.15 145.35C210.05 152.95 209.9 159.95 209.7 166.35C209.5 172.75 209.3 177.95 209.1 181.95C208.9 185.95 208.75 188.15 208.65 188.55C208.25 189.85 207.5 191 206.4 192C205.3 193.1 203.55 193.9 201.15 194.4C199.15 194.9 196.85 195.05 194.25 194.85C191.75 194.75 189.6 194.4 187.8 193.8C186 193.2 185.1 192.6 185.1 192C185.1 191.7 185.1 189.55 185.1 185.55C185.2 181.65 185.25 176.5 185.25 170.1C185.25 163.6 185.25 156.35 185.25 148.35C185.25 140.35 185.25 132.15 185.25 123.75C185.25 115.35 185.25 107.2 185.25 99.3C185.25 91.4 185.25 84.3 185.25 78C185.25 71.7 185.25 66.7 185.25 63C185.25 59.3 185.25 57.45 185.25 57.45C186.75 57.45 188.7 57.6 191.1 57.9C193.6 58.1 196.15 58.65 198.75 59.55C201.45 60.35 203.75 61.75 205.65 63.75C206.75 64.85 207.65 66.15 208.35 67.65C209.15 69.05 209.7 70.7 210 72.6ZM144.3 63.15C147.8 63.05 151.45 63.45 155.25 64.35C159.15 65.15 162.45 66.45 165.15 68.25C167.95 70.05 169.35 72.4 169.35 75.3C169.35 76.5 169.35 79 169.35 82.8C169.35 86.6 169.3 91.25 169.2 96.75C169.2 102.15 169.2 107.95 169.2 114.15C169.2 120.25 169.15 126.3 169.05 132.3C169.05 138.3 169 143.8 168.9 148.8C168.9 153.8 168.85 157.9 168.75 161.1C168.75 164.3 168.7 166.05 168.6 166.35C167.5 167.35 165.7 168.2 163.2 168.9C160.8 169.5 157.95 169.5 154.65 168.9C151.75 168.4 149.35 167.5 147.45 166.2C145.55 164.8 144.5 163.3 144.3 161.7C144.2 160.8 144.15 158.4 144.15 154.5C144.15 150.5 144.15 145.55 144.15 139.65C144.15 133.65 144.15 127.25 144.15 120.45C144.15 113.55 144.15 106.75 144.15 100.05C144.15 93.25 144.15 87.1 144.15 81.6C144.25 76 144.3 71.55 144.3 68.25C144.3 64.85 144.3 63.15 144.3 63.15Z" fill="black"/>
<path d="M357.6 185C348.933 185 341.067 182.867 334 178.6C326.933 174.2 321.333 168.267 317.2 160.8C313.2 153.333 311.2 144.933 311.2 135.6C311.2 126.267 313.2 117.867 317.2 110.4C321.333 102.933 326.867 97 333.8 92.6C340.867 88.2 348.8 86 357.6 86C364.8 86 371.2 87.5333 376.8 90.6C382.533 93.5333 387.133 97.6667 390.6 103C394.067 108.2 396 114.267 396.4 121.2V149.8C396 156.6 394.067 162.667 390.6 168C387.267 173.333 382.733 177.533 377 180.6C371.4 183.533 364.933 185 357.6 185ZM360.6 168C369.533 168 376.733 165 382.2 159C387.667 152.867 390.4 145.067 390.4 135.6C390.4 129.067 389.133 123.4 386.6 118.6C384.2 113.667 380.733 109.867 376.2 107.2C371.667 104.4 366.4 103 360.4 103C354.4 103 349.067 104.4 344.4 107.2C339.867 110 336.267 113.867 333.6 118.8C331.067 123.6 329.8 129.133 329.8 135.4C329.8 141.8 331.067 147.467 333.6 152.4C336.267 157.2 339.933 161 344.6 163.8C349.267 166.6 354.6 168 360.6 168ZM389.2 183V157.4L392.6 134.2L389.2 111.2V88H407.4V183H389.2ZM433.606 183V40.2H451.606V183H433.606ZM492.542 183V48.2H510.542V183H492.542ZM469.142 104.4V88H533.942V104.4H469.142ZM551.575 183V88H569.575V183H551.575ZM569.575 128.8L562.775 125.8C562.775 113.667 565.575 104 571.175 96.8C576.775 89.6 584.842 86 595.375 86C600.175 86 604.508 86.8667 608.375 88.6C612.242 90.2 615.842 92.9333 619.175 96.8L607.375 109C605.375 106.867 603.175 105.333 600.775 104.4C598.375 103.467 595.575 103 592.375 103C585.708 103 580.242 105.133 575.975 109.4C571.708 113.667 569.575 120.133 569.575 128.8Z" fill="black"/>
</g>
<defs>
<clipPath id="clip0_14_25">
<rect width="720" height="240" fill="white"/>
</clipPath>
</defs>
</svg>
