<svg width="301" height="163" viewBox="0 0 301 163" fill="none" xmlns="http://www.w3.org/2000/svg">
<path d="M168.952 104.176L156.664 104.688C151.544 104.688 147.533 104.176 144.632 103.152C139.853 102.128 137.464 100.336 137.464 97.776C137.464 96.752 138.232 96.24 139.768 96.24C140.963 96.24 142.328 96.3254 143.864 96.496C145.571 96.496 147.533 96.5813 149.752 96.752C152.141 96.9227 169.293 97.8614 171 98.032C172.707 98.032 158.968 97.264 159.992 97.264L171 98.032C181.581 98.032 190.029 98.032 196.344 98.032C202.659 97.8613 206.925 97.776 209.144 97.776H211.192C213.24 97.776 214.264 98.032 214.264 98.544C214.264 99.568 212.216 100.507 208.12 101.36C200.781 102.213 193.869 102.896 187.384 103.408C180.899 103.92 174.755 104.176 168.952 104.176Z" fill="black"/>
<path d="M264.89 161.024C258.746 161.024 255.674 157.184 255.674 149.504C255.674 145.408 257.21 140.288 260.282 134.144C263.183 127.317 264.634 122.368 264.634 119.296C264.634 117.077 263.781 115.371 262.074 114.176C260.538 112.981 258.575 111.872 256.186 110.848C254.479 109.995 252.687 108.971 250.81 107.776C248.933 106.581 247.397 105.387 246.202 104.192C245.007 106.752 242.362 111.189 238.266 117.504C234.17 123.819 229.733 130.304 224.954 136.96C224.271 137.813 223.589 138.24 222.906 138.24C222.223 138.24 221.882 137.643 221.882 136.448C221.882 135.253 222.565 133.973 223.93 132.608C225.295 130.901 227.258 128.171 229.818 124.416C232.378 120.491 234.938 116.309 237.498 111.872C240.058 107.264 242.021 103.253 243.386 99.84C242.533 96.9387 241.85 94.464 241.338 92.416C240.826 90.368 240.57 88.32 240.57 86.272C240.57 82.688 241.594 79.4453 243.642 76.544C245.69 73.6427 248.335 72.192 251.578 72.192C256.186 72.192 258.49 74.9227 258.49 80.384C258.49 86.3573 256.186 92.5867 251.578 99.072C252.261 100.096 253.114 100.949 254.138 101.632C255.162 102.315 256.783 103.083 259.002 103.936C260.197 104.448 261.306 104.789 262.33 104.96C263.525 105.131 264.549 105.216 265.402 105.216C266.767 105.216 267.877 105.131 268.73 104.96C269.754 104.789 270.607 104.704 271.29 104.704C272.314 104.704 273.509 105.301 274.874 106.496C276.41 107.52 277.178 109.141 277.178 111.36C277.178 112.555 277.093 113.323 276.922 113.664C276.751 114.005 276.239 115.456 275.386 118.016C274.703 120.405 273.423 123.819 271.546 128.256C268.133 137.131 266.426 143.36 266.426 146.944C266.426 151.723 268.047 154.112 271.29 154.112C274.874 154.112 279.141 151.979 284.09 147.712C289.21 143.445 293.903 138.411 298.17 132.608C298.682 132.096 299.109 131.84 299.45 131.84C300.133 131.84 300.474 132.437 300.474 133.632C300.474 134.827 300.047 135.936 299.194 136.96C292.367 146.005 286.223 152.32 280.762 155.904C275.301 159.317 270.01 161.024 264.89 161.024Z" fill="black"/>
<path d="M224.884 136.96C217.545 146.347 210.633 153.003 204.148 156.928C197.833 160.853 191.092 162.816 183.924 162.816C174.025 162.816 166.26 159.915 160.628 154.112C155.167 148.309 152.436 140.203 152.436 129.792C152.436 121.259 153.972 112.896 157.044 104.704L169.332 76.288C171.38 71.3387 173.257 67.328 174.964 64.256C176.671 61.184 178.036 59.0507 179.06 57.856C181.62 55.1253 185.033 53.76 189.3 53.76C193.396 53.76 195.444 54.6133 195.444 56.32L186.484 70.4C183.241 75.52 180.34 80.384 177.78 84.992C175.391 89.6 171.209 100.096 169.332 104.192C167.625 108.629 166.175 113.323 164.98 118.272C163.956 123.051 163.444 127.659 163.444 132.096C163.444 138.752 164.98 144.555 168.052 149.504C171.124 154.453 176.585 156.928 184.436 156.928C193.823 156.928 201.247 154.709 206.708 150.272C212.34 145.664 218.057 139.776 223.86 132.608C224.713 131.584 225.481 131.072 226.164 131.072C226.676 131.072 226.932 131.499 226.932 132.352C226.932 133.547 226.249 135.083 224.884 136.96Z" fill="black"/>
<path d="M112.286 162.816C95.0487 162.816 86.43 150.101 86.43 124.672C86.43 99.7547 94.622 72.704 111.006 43.52C127.049 14.5067 142.238 0 156.574 0C161.694 0 165.107 3.49867 166.814 10.496V13.824C166.814 26.112 157.342 46.848 138.398 76.032C130.377 88.6613 122.782 99.6693 115.614 109.056C108.617 118.443 102.046 126.379 95.902 132.864C97.95 148.224 105.033 155.904 117.15 155.904C124.489 155.904 130.718 153.856 135.838 149.76C140.958 145.493 146.419 139.776 152.222 132.608C153.246 131.584 153.929 131.072 154.27 131.072C154.782 131.072 155.038 131.499 155.038 132.352C155.038 133.547 154.441 135.083 153.246 136.96C145.907 146.347 138.995 153.003 132.51 156.928C126.025 160.853 119.283 162.816 112.286 162.816ZM96.158 126.464C105.374 117.419 117.406 99.4987 132.254 72.704C147.955 44.2027 155.806 24.576 155.806 13.824C155.806 9.04532 154.441 6.65599 151.71 6.65599C141.129 6.65599 129.097 21.8453 115.614 52.224C109.299 67.2427 104.435 80.896 101.022 93.184C97.7793 105.472 96.158 116.565 96.158 126.464Z" fill="black"/>
<path d="M10.496 161.28C3.49867 161.28 0 157.867 0 151.04C0 144.555 4.69333 135.509 14.08 123.904C22.6133 113.152 30.0373 105.728 36.352 101.632C42.6667 97.536 48.5547 95.488 54.016 95.488C60.5013 95.488 63.744 97.3653 63.744 101.12C63.744 101.973 62.8907 103.253 61.184 104.96C59.4773 106.496 58.5387 107.435 58.368 107.776C55.1253 113.067 53.504 123.819 53.504 140.032C53.504 149.419 55.552 154.112 59.648 154.112C63.4027 154.112 67.7547 151.893 72.704 147.456C77.6533 143.019 82.2613 138.069 86.528 132.608C87.04 132.096 87.4667 131.84 87.808 131.84C88.4907 131.84 88.832 132.267 88.832 133.12C88.832 133.461 88.6613 134.059 88.32 134.912C88.1493 135.765 87.8933 136.448 87.552 136.96C80.5547 146.347 74.496 152.661 69.376 155.904C64.4267 159.147 59.5627 160.768 54.784 160.768C47.104 160.768 43.3493 152.576 43.52 136.192C40.2773 141.995 35.584 147.456 29.44 152.576C22.272 158.379 15.9573 161.28 10.496 161.28ZM17.408 154.368C20.3093 154.368 23.3813 153.173 26.624 150.784C36.6933 142.763 43.264 127.744 46.336 105.728C45.824 105.728 45.4827 105.643 45.312 105.472C41.8987 105.472 37.376 107.52 31.744 111.616C26.9653 114.859 23.1253 118.357 20.224 122.112C13.3973 130.987 9.984 138.667 9.984 145.152C9.984 151.296 12.4587 154.368 17.408 154.368Z" fill="black"/>
</svg>
